<?xml version="1.0" standalone="no"?><!DOCTYPE svg PUBLIC "-//W3C//DTD SVG 1.1//EN" "http://www.w3.org/Graphics/SVG/1.1/DTD/svg11.dtd"><svg t="1521001560716" class="icon" style="" viewBox="0 0 1024 1024" version="1.1" xmlns="http://www.w3.org/2000/svg" p-id="2824" xmlns:xlink="http://www.w3.org/1999/xlink" width="32" height="32"><defs><style type="text/css"></style></defs><path d="M850.2 247.4c-76.7-76.7-202.1-76.7-278.8 0L511.9 307l-59.5-59.5c-76.7-76.7-202.1-76.7-278.8 0-76.7 76.7-76.7 202.1 0 278.8 0 0 275 316.6 338.3 316.6s338.3-316.6 338.3-316.6c76.6-76.8 76.6-202.2 0-278.9z" fill="#D6B0F7" p-id="2825"></path><path d="M511.9 850.8c-22.2 0-59-29.3-84.8-51.4-30.9-26.4-69.2-63.2-113.9-109.3-74-76.4-141.5-153.8-145.5-158.4-38.5-38.6-59.6-90-59.6-144.8 0-54.9 21.3-106.5 59.8-145 38.6-38.6 90.1-59.8 145-59.8 54.9 0 106.5 21.3 145 59.8l53.9 53.9 53.9-53.9c38.6-38.6 90.1-59.8 145-59.8 54.9 0 106.5 21.3 145 59.8 38.6 38.6 59.8 90.1 59.8 145 0 54.9-21.2 106.3-59.6 144.8-4 4.6-71.5 82-145.5 158.4-44.7 46.1-83 82.9-113.9 109.3-53.7 46.1-74 51.4-84.6 51.4z m-199-652.9c-50.7 0-98.2 19.6-133.7 55.2s-55.2 83-55.2 133.7 19.6 98.2 55.2 133.7l0.4 0.4c0.7 0.8 69.5 79.9 145.2 158 44.3 45.8 82.3 82.2 112.8 108.3 48.3 41.4 67.3 47.5 74.4 47.5 7 0 26-6.2 74.4-47.5 30.5-26.1 68.4-62.5 112.8-108.3 75.6-78.1 144.5-157.2 145.2-158l0.4-0.4c35.6-35.6 55.2-83.1 55.2-133.7s-19.6-98.2-55.2-133.7c-35.6-35.6-83.1-55.2-133.7-55.2-50.7 0-98.2 19.6-133.7 55.2l-65.2 65.2-65.2-65.2c-35.9-35.6-83.4-55.2-134.1-55.2z" fill="#050405" p-id="2826"></path><path d="M835.5 411.4c-4.1 0-7.5-3.1-8-7.2C824.4 371.6 810 341 787 318c-26.6-26.6-62.1-41.3-100.1-41.3s-73.5 14.7-100.1 41.3c-3.1 3.1-8.2 3.1-11.3 0-3.1-3.1-3.1-8.2 0-11.3 29.6-29.6 69.2-46 111.4-46s81.7 16.3 111.4 46c25.6 25.6 41.7 59.6 45.2 95.9 0.4 4.4-2.8 8.3-7.2 8.7-0.3 0.1-0.5 0.1-0.8 0.1zM825.2 480.7c-1.9 0-3.9-0.7-5.4-2.1-3.3-3-3.5-8-0.5-11.3 1-1.1 1.9-2.2 2.7-3.3 2.6-3.6 7.6-4.3 11.2-1.7 3.6 2.6 4.3 7.6 1.7 11.2-1.1 1.6-2.4 3.1-3.8 4.6-1.6 1.7-3.8 2.6-5.9 2.6zM780.2 546c-1.9 0-3.9-0.7-5.4-2.1-3.2-3-3.5-8.1-0.5-11.3 5.4-5.9 8.5-9.3 8.6-9.4l0.4-0.4c3.6-3.5 7-7.2 9.9-11.2 2.6-3.5 7.7-4.3 11.2-1.6 3.5 2.6 4.3 7.7 1.6 11.2-3.4 4.6-7.3 8.9-11.4 13-0.8 0.8-3.8 4.1-8.5 9.3-1.6 1.6-3.7 2.5-5.9 2.5z" fill="#050405" p-id="2827"></path></svg>