<?xml version="1.0" standalone="no"?>
<!DOCTYPE svg PUBLIC "-//W3C//DTD SVG 20010904//EN"
 "http://www.w3.org/TR/2001/REC-SVG-20010904/DTD/svg10.dtd">
<svg version="1.0" xmlns="http://www.w3.org/2000/svg"
 width="700.000000pt" height="700.000000pt" viewBox="0 0 700.000000 700.000000"
 preserveAspectRatio="xMidYMid meet">
<metadata>
Created by potrace 1.11, written by Peter Selinger 2001-2013
</metadata>
<g transform="translate(0.000000,700.000000) scale(0.100000,-0.100000)"
fill="#000000" stroke="none">
<path d="M3540 5194 c-19 -2 -84 -9 -145 -15 -402 -40 -842 -171 -1158 -342
-79 -44 -230 -142 -339 -221 -30 -21 -73 -40 -120 -51 -221 -53 -535 -177
-724 -284 -412 -234 -628 -537 -611 -856 6 -113 24 -179 74 -280 204 -410 842
-747 1667 -880 l96 -15 93 -93 c232 -232 555 -367 852 -355 76 2 100 8 155 34
126 60 209 181 220 319 l5 70 107 14 106 14 74 -74 c121 -121 241 -179 412
-201 152 -19 297 17 438 109 170 111 295 329 298 518 1 40 2 41 102 105 55 36
103 63 107 60 3 -3 32 -38 64 -77 136 -172 376 -324 602 -382 203 -52 470 -55
566 -5 53 27 75 105 45 162 -8 15 -49 60 -90 100 -300 291 -430 711 -351 1128
20 108 47 189 99 300 61 129 127 222 250 351 103 109 106 114 106 158 0 37 -6
52 -32 80 -28 30 -44 37 -98 47 -97 16 -301 13 -400 -6 -295 -56 -549 -211
-736 -450 l-31 -39 -108 71 c-125 83 -283 164 -450 230 l-117 47 -1 150 c-2
145 -3 152 -33 215 -73 154 -236 271 -454 326 -48 12 -122 17 -285 19 -121 2
-236 1 -255 -1z m-1855 -1125 c60 -101 108 -218 137 -334 30 -120 33 -418 6
-532 -24 -97 -63 -203 -108 -293 -38 -75 -145 -230 -159 -230 -15 0 -212 80
-282 115 -163 82 -343 208 -427 299 -65 71 -120 163 -144 239 -17 56 -20 86
-15 154 4 75 10 96 48 172 96 194 351 389 699 533 l115 48 41 -45 c22 -25 62
-82 89 -126z"/>
<path d="M1264 3608 c11 -57 76 -108 136 -108 68 0 140 61 140 119 0 20 -4 21
-141 21 l-141 0 6 -32z"/>
</g>
</svg>
